 <svg  version="1.0" xmlns="http://www.w3.org/2000/svg"  width="699.000000pt" height="711.000000pt" viewBox="0 0 699.000000 711.000000"  preserveAspectRatio="xMidYMid meet">  <g transform="translate(0.000000,711.000000) scale(0.100000,-0.100000)" fill="#2369fb" stroke="none"> <path d="M610 6845 c-14 -8 -35 -14 -46 -15 -12 0 -27 -7 -34 -15 -7 -8 -18 -15 -25 -15 -18 0 -125 -105 -125 -123 0 -8 -7 -20 -15 -27 -8 -7 -15 -20 -15 -30 0 -10 -7 -34 -15 -53 -12 -30 -15 -102 -15 -421 l0 -385 49 -49 c40 -40 58 -50 94 -55 24 -4 59 -2 77 3 43 12 98 56 113 88 8 18 14 133 17 352 l5 325 29 38 c15 20 37 37 47 37 10 0 21 5 24 10 5 7 120 10 346 9 l340 -1 39 27 c44 30 80 95 80 143 0 39 -32 102 -73 142 l-31 30 -420 0 c-346 -1 -425 -3 -446 -15z m759 -94 c45 -9 80 -41 81 -72 0 -9 -12 -25 -27 -35 -29 -20 -27 -20 -583 -25 -58 -1 -71 -5 -120 -37 -30 -21 -59 -43 -64 -51 -4 -7 -18 -23 -30 -35 -44 -44 -49 -76 -52 -353 -2 -236 -4 -265 -20 -290 -11 -15 -24 -37 -30 -48 -6 -11 -21 -21 -33 -23 -17 -3 -25 6 -42 45 -21 46 -22 63 -21 348 0 166 3 318 7 338 12 65 57 138 105 174 63 46 86 55 158 59 35 1 66 5 69 7 8 9 557 7 602 -2z"/> <path d="M5638 6750 c-40 -25 -56 -45 -78 -101 -20 -51 -21 -55 -4 -98 9 -25 28 -59 43 -74 52 -57 67 -59 412 -61 l317 -1 24 -25 c60 -62 58 -49 58 -423 0 -294 2 -346 15 -357 8 -7 15 -16 15 -21 0 -5 9 -18 20 -29 11 -11 24 -20 29 -20 5 0 14 -7 21 -15 9 -10 32 -15 75 -15 43 0 66 5 75 15 7 8 18 15 24 15 6 0 22 12 36 27 l25 26 0 452 c0 417 -1 454 -17 472 -10 11 -18 27 -18 35 0 9 -7 21 -15 28 -8 7 -15 17 -15 22 0 5 -16 24 -37 41 -20 18 -43 40 -52 50 -8 9 -22 17 -30 17 -8 0 -22 6 -30 13 -36 31 -126 38 -497 40 -315 2 -375 0 -396 -13z m773 -107 c7 -7 26 -13 44 -13 42 0 152 -88 161 -128 4 -15 11 -33 17 -40 7 -9 10 -141 8 -395 -2 -362 -4 -382 -22 -409 -26 -37 -45 -35 -69 5 -34 55 -39 95 -40 327 -2 326 -12 370 -107 462 -37 36 -91 55 -203 72 -48 7 -431 9 -450 2 -10 -3 -25 9 -43 35 l-27 40 27 29 28 30 333 -2 c262 -1 335 -4 343 -15z"/> <path d="M3330 5890 c-500 -36 -965 -217 -1396 -545 -97 -73 -368 -341 -414 -410 -19 -27 -42 -59 -52 -69 -24 -26 -140 -201 -177 -266 -30 -55 -90 -175 -117 -237 -51 -116 -68 -159 -89 -228 -10 -33 -22 -69 -26 -80 -5 -11 -13 -40 -19 -65 -5 -25 -13 -63 -19 -85 -27 -106 -41 -188 -42 -241 -1 -33 -4 -72 -8 -89 l-6 -30 -242 4 c-210 2 -248 1 -287 -14 -113 -43 -113 -181 -1 -235 45 -22 46 -22 524 -14 l480 7 4 -109 c5 -121 20 -256 35 -306 6 -18 18 -60 27 -93 34 -125 70 -222 130 -348 51 -109 156 -288 190 -327 12 -14 33 -41 46 -61 60 -90 317 -346 384 -381 13 -7 50 -31 82 -52 32 -21 85 -57 118 -79 64 -44 154 -87 310 -149 55 -22 114 -46 130 -53 67 -30 303 -70 497 -85 243 -19 656 31 792 96 28 13 56 24 63 24 19 0 256 110 308 143 27 17 97 60 117 72 55 34 139 95 206 152 117 99 309 311 367 404 5 9 28 45 49 80 56 90 156 290 156 311 0 9 4 19 10 23 5 3 14 20 19 38 5 18 21 64 35 102 14 39 26 81 26 95 0 14 7 36 15 50 8 14 14 44 15 67 0 23 5 54 12 70 7 15 14 91 18 168 l5 140 472 0 472 0 35 40 c20 22 39 54 42 72 11 58 -45 139 -105 152 -29 6 -373 -3 -416 -10 -18 -4 -21 3 -26 66 -7 90 -27 206 -45 271 -8 28 -14 59 -14 70 0 17 -8 43 -40 134 -6 19 -15 49 -20 65 -34 125 -156 386 -240 515 -27 41 -53 82 -57 90 -33 69 -225 300 -349 422 -107 103 -267 235 -349 285 -235 146 -313 187 -450 243 -218 88 -417 142 -640 174 -124 18 -406 26 -545 16z m472 -111 c89 -6 161 -16 173 -23 11 -7 47 -16 80 -20 33 -4 74 -11 90 -16 45 -15 252 -85 320 -110 81 -29 201 -88 215 -106 7 -8 21 -14 32 -14 20 0 172 -98 266 -172 19 -16 39 -28 44 -28 5 0 27 -17 48 -37 22 -21 64 -58 95 -83 31 -25 91 -83 133 -130 42 -47 94 -101 114 -121 21 -20 38 -40 38 -46 0 -5 9 -18 21 -29 12 -10 28 -32 36 -49 9 -16 26 -37 39 -47 12 -10 28 -35 35 -55 7 -21 24 -50 39 -65 29 -29 130 -216 130 -241 0 -8 13 -34 30 -58 16 -24 32 -63 36 -87 3 -23 10 -45 15 -48 15 -9 35 -66 43 -119 5 -28 13 -56 19 -64 17 -20 37 -96 48 -180 5 -41 14 -80 20 -87 20 -25 0 -96 -38 -130 -37 -34 -31 -44 25 -44 28 0 132 -48 132 -61 0 -4 16 -16 36 -28 27 -16 52 -21 112 -21 90 0 122 -7 122 -26 0 -21 17 -17 23 6 4 14 14 20 35 20 33 0 47 -13 57 -51 6 -24 4 -27 -37 -35 -24 -4 -99 -9 -168 -10 -239 -5 -605 -22 -630 -29 -50 -16 -68 -45 -80 -135 -6 -46 -14 -88 -17 -93 -3 -5 -9 -43 -14 -86 -10 -87 -24 -152 -50 -232 -11 -30 -19 -65 -19 -77 0 -11 -4 -24 -10 -27 -5 -3 -16 -27 -24 -53 -18 -61 -54 -140 -66 -147 -6 -3 -10 -17 -10 -30 0 -13 -13 -36 -29 -52 -16 -16 -32 -43 -35 -60 -4 -18 -14 -37 -22 -44 -8 -7 -31 -41 -50 -76 -20 -35 -51 -79 -70 -98 -19 -20 -34 -39 -34 -44 0 -5 -11 -16 -24 -25 -14 -8 -27 -24 -31 -35 -3 -11 -14 -23 -25 -26 -10 -3 -25 -21 -35 -40 -9 -19 -20 -35 -25 -35 -6 0 -39 -30 -75 -66 -36 -36 -65 -64 -65 -61 0 2 -19 -13 -42 -34 -23 -21 -58 -46 -77 -56 -20 -10 -40 -23 -46 -29 -21 -23 -93 -74 -104 -74 -7 0 -14 -7 -17 -15 -4 -9 -19 -15 -35 -15 -16 0 -32 -6 -35 -13 -4 -12 -56 -41 -139 -77 -22 -10 -58 -26 -80 -35 -60 -26 -154 -55 -210 -64 -27 -5 -88 -19 -135 -31 -73 -19 -115 -23 -305 -25 -263 -3 -400 6 -485 34 -35 12 -75 21 -89 21 -32 0 -240 69 -262 87 -9 7 -38 20 -65 28 -27 8 -65 26 -84 40 -18 14 -39 25 -46 25 -7 0 -33 16 -58 35 -26 19 -50 35 -54 35 -5 0 -21 14 -37 30 -16 17 -35 30 -43 30 -15 0 -81 50 -127 97 -17 18 -36 33 -41 33 -18 0 -154 136 -154 154 0 12 -5 16 -15 12 -10 -3 -20 6 -31 29 -8 19 -27 41 -40 50 -13 8 -24 22 -24 30 0 8 -9 19 -20 25 -11 6 -20 19 -20 29 0 10 -9 21 -20 24 -11 3 -24 17 -29 31 -6 14 -21 42 -35 63 -13 21 -30 55 -37 75 -7 21 -16 38 -20 38 -10 0 -49 68 -49 84 0 8 -6 19 -14 25 -7 6 -21 33 -31 59 -9 26 -27 74 -40 107 -52 134 -78 250 -115 510 -13 89 -46 150 -90 167 -25 10 -56 12 -578 27 -300 9 -322 12 -322 51 0 40 27 47 205 52 124 4 180 10 207 21 21 9 38 20 38 25 0 15 85 52 134 58 54 8 67 20 33 33 -19 8 -26 21 -37 70 -11 52 -10 65 4 102 9 22 14 49 11 59 -8 24 20 141 45 190 11 21 20 50 20 64 0 46 130 346 188 434 29 44 41 64 67 117 28 56 107 170 145 209 14 14 38 41 53 60 85 102 197 217 277 283 41 35 84 71 95 82 11 10 31 24 45 31 14 7 32 19 40 26 28 26 124 94 133 94 4 0 25 13 45 29 20 16 51 32 67 36 17 3 41 17 55 29 25 23 107 61 185 86 22 7 63 23 90 35 79 36 230 84 287 91 29 4 64 12 78 19 14 7 54 16 90 20 36 4 92 11 125 15 96 11 390 11 557 -1z"/> <path d="M3214 5517 c-23 -13 -171 -46 -207 -47 -15 0 -42 -7 -60 -16 -17 -9 -66 -25 -109 -36 -42 -10 -105 -32 -140 -48 -35 -17 -72 -30 -82 -30 -11 0 -33 -11 -50 -24 -17 -12 -65 -41 -107 -63 -113 -60 -196 -112 -250 -158 -20 -16 -50 -40 -66 -52 -34 -26 -218 -206 -279 -273 -74 -82 -180 -224 -224 -300 -23 -41 -50 -86 -60 -100 -9 -14 -23 -43 -30 -65 -7 -22 -28 -69 -47 -105 -18 -36 -33 -73 -33 -83 0 -10 -7 -29 -16 -43 -9 -14 -23 -48 -30 -77 -7 -29 -20 -77 -28 -107 -9 -30 -21 -80 -27 -110 -14 -76 -47 -163 -66 -177 -9 -7 -34 -13 -56 -13 -24 0 -36 -4 -32 -11 4 -5 19 -8 33 -5 29 7 129 -17 145 -33 22 -22 35 -10 40 37 7 72 27 183 39 217 5 17 14 48 18 70 8 40 29 108 48 155 5 14 18 45 27 70 20 49 55 129 88 200 12 25 41 75 64 112 24 37 43 70 43 73 0 6 57 83 110 149 247 309 586 558 920 675 92 32 274 84 330 95 174 34 218 38 400 38 158 1 217 -3 315 -21 248 -45 463 -114 630 -200 54 -29 104 -56 110 -61 5 -4 28 -18 50 -30 65 -36 230 -158 303 -223 73 -66 74 -67 177 -182 71 -80 85 -99 187 -254 61 -92 181 -319 191 -361 3 -14 17 -59 30 -100 44 -134 87 -298 87 -334 0 -20 28 -123 36 -135 2 -2 15 4 29 13 14 9 57 19 100 23 79 6 94 13 71 32 -10 9 -21 8 -41 -1 -25 -11 -29 -10 -39 6 -6 11 -19 27 -28 37 -25 27 -40 58 -43 93 -1 17 -12 69 -24 115 -11 46 -25 111 -31 144 -5 33 -16 67 -24 76 -9 9 -23 41 -32 71 -9 30 -20 62 -25 70 -5 8 -12 22 -15 30 -3 8 -12 29 -20 47 -8 17 -14 33 -14 36 0 4 -11 18 -25 33 -14 15 -25 32 -25 38 0 13 -39 89 -50 96 -4 3 -37 49 -74 103 -37 54 -79 112 -94 129 -85 98 -133 149 -187 198 -33 30 -64 60 -70 66 -12 14 -162 133 -190 152 -69 44 -255 152 -264 152 -4 0 -27 13 -49 30 -23 16 -63 35 -88 40 -26 6 -59 17 -73 25 -42 23 -207 75 -240 75 -16 0 -42 5 -58 11 -15 6 -55 17 -88 24 -33 8 -79 18 -101 24 -53 14 -585 12 -610 -2z"/> <path d="M3304 5130 c-11 -4 -47 -11 -80 -15 -132 -16 -343 -85 -514 -169 -184 -91 -278 -159 -441 -318 -128 -125 -195 -205 -261 -311 -116 -188 -225 -434 -249 -562 -4 -22 -12 -58 -18 -80 -6 -22 -11 -62 -11 -88 l0 -48 -85 7 c-83 7 -199 -8 -211 -27 -2 -4 8 -16 23 -26 22 -14 48 -18 129 -18 91 0 106 2 131 22 43 35 94 59 138 68 22 4 131 7 243 6 227 -3 270 -11 349 -64 26 -19 60 -37 75 -40 47 -12 469 -9 528 4 96 20 122 40 192 145 35 52 52 107 68 219 10 78 4 121 -30 189 l-24 46 29 30 c16 17 44 32 64 36 20 4 41 9 46 13 12 7 -37 18 -88 20 -30 1 -44 8 -68 35 -16 19 -68 67 -114 106 -73 62 -95 75 -167 97 -103 32 -250 38 -313 12 -22 -10 -58 -22 -80 -28 -47 -12 -155 -99 -206 -165 -58 -74 -101 -170 -118 -262 -16 -87 -14 -114 16 -226 l26 -101 -26 -19 c-24 -18 -45 -20 -198 -20 -130 0 -175 4 -184 14 -17 17 -29 115 -15 123 5 3 10 19 10 34 0 15 6 33 12 39 7 7 18 34 25 60 14 60 42 133 55 149 5 7 25 43 43 80 18 37 45 83 59 102 14 19 26 43 26 53 0 10 11 25 25 34 14 9 25 22 25 29 0 20 67 99 195 229 114 117 223 205 273 220 12 4 22 12 22 17 0 14 278 146 335 159 27 6 54 15 60 19 20 16 221 61 295 65 273 18 571 -5 662 -50 26 -13 55 -24 65 -24 19 0 129 -42 140 -54 3 -3 16 -6 27 -6 12 0 31 -7 44 -15 12 -9 52 -31 89 -50 38 -18 76 -43 85 -54 10 -12 24 -21 32 -21 8 0 27 -11 43 -24 15 -12 40 -29 55 -37 67 -35 312 -291 361 -377 7 -11 36 -58 64 -105 29 -47 53 -92 53 -100 0 -9 6 -20 14 -24 18 -10 46 -67 46 -91 0 -11 13 -45 29 -75 37 -71 72 -205 64 -251 -11 -67 0 -65 -403 -67 -249 -1 -378 2 -407 10 -46 13 -80 56 -139 175 -33 67 -203 243 -244 253 -14 3 -34 13 -45 22 -26 22 -122 68 -159 77 -22 5 -28 4 -24 -7 2 -7 20 -17 39 -22 19 -5 38 -13 43 -18 6 -5 20 -9 33 -9 13 0 26 -7 29 -15 4 -8 23 -23 43 -32 20 -10 50 -30 66 -45 122 -111 205 -203 205 -229 0 -11 7 -22 15 -25 8 -4 15 -12 15 -20 0 -7 6 -28 14 -46 7 -18 18 -46 23 -63 l8 -30 466 -5 465 -5 44 -30 c64 -45 91 -58 138 -66 66 -13 202 18 202 45 0 29 -205 46 -263 21 -22 -9 -44 41 -53 122 -6 61 -13 87 -64 248 -39 123 -100 261 -153 342 -15 24 -27 46 -28 50 0 5 -16 28 -35 53 -18 25 -49 68 -68 95 -42 63 -240 258 -326 323 -111 83 -180 125 -310 188 -163 80 -319 129 -532 168 -94 17 -445 22 -484 6z m-393 -807 c133 -42 251 -157 302 -293 23 -62 23 -217 -1 -285 -22 -64 -62 -132 -99 -168 l-28 -29 -304 0 -304 1 -21 23 c-43 46 -85 116 -105 173 -25 71 -29 216 -7 267 8 18 22 53 32 78 22 51 131 168 184 195 111 57 245 72 351 38z"/> <path d="M3493 4173 c15 -2 37 -2 50 0 12 2 0 4 -28 4 -27 0 -38 -2 -22 -4z"/> <path d="M3650 4150 c20 -13 90 -13 90 0 0 6 -24 10 -52 10 -38 0 -49 -3 -38 -10z"/> <path d="M1762 3340 c-63 -7 -75 -15 -104 -65 -17 -29 -13 -229 6 -290 9 -27 16 -62 16 -77 0 -15 6 -45 14 -65 8 -21 22 -65 31 -98 20 -71 63 -182 82 -210 7 -11 13 -28 13 -39 0 -10 10 -35 22 -55 34 -54 56 -93 70 -123 7 -16 15 -28 19 -28 9 0 103 -129 105 -144 3 -32 5 -36 16 -36 15 0 186 -179 194 -202 3 -11 15 -18 29 -18 16 0 30 -10 42 -30 9 -17 25 -32 34 -35 9 -3 24 -14 34 -25 10 -11 25 -20 32 -20 8 0 27 -9 41 -21 57 -44 99 -70 152 -95 30 -14 66 -34 81 -45 15 -10 35 -19 46 -19 10 0 34 -8 53 -18 19 -10 73 -31 120 -46 47 -15 99 -32 115 -38 17 -6 53 -14 80 -18 28 -4 96 -15 153 -25 134 -22 480 -17 617 9 170 33 257 58 355 102 42 19 83 34 92 34 8 0 26 8 39 18 40 29 86 52 104 52 9 0 30 14 45 30 16 17 42 33 60 36 17 4 34 13 37 20 2 7 31 29 63 49 32 20 61 43 64 51 3 8 10 14 16 14 6 0 38 28 70 63 69 72 67 70 100 101 53 49 141 161 159 203 6 12 22 29 36 39 14 9 25 24 25 34 0 9 11 33 23 52 13 19 32 56 42 82 10 26 26 51 37 57 10 5 18 21 18 35 0 14 8 41 19 62 10 20 33 84 50 142 18 58 37 119 43 135 16 49 37 215 38 295 0 52 -5 86 -18 110 -32 65 -29 65 -523 67 -469 3 -536 -2 -576 -39 -26 -24 -57 -101 -68 -167 -18 -108 -191 -371 -245 -371 -10 0 -25 -11 -34 -24 -8 -14 -26 -28 -38 -32 -13 -4 -35 -17 -50 -30 -48 -39 -227 -84 -331 -83 -93 1 -260 35 -276 56 -4 5 -33 22 -66 39 -33 17 -64 41 -70 53 -5 11 -17 21 -25 21 -32 0 -136 114 -188 207 -29 51 -52 100 -52 108 0 9 -6 26 -14 38 -8 12 -21 49 -30 82 -8 32 -24 71 -34 85 -41 55 -41 55 -512 56 -239 1 -463 -1 -498 -6z m962 -62 c2 -7 11 -49 19 -93 20 -105 71 -245 89 -245 4 0 8 -6 8 -14 0 -18 111 -165 142 -188 13 -10 43 -32 68 -51 123 -91 265 -142 420 -152 352 -21 639 151 790 474 11 24 20 50 20 58 0 8 5 24 12 36 7 12 15 58 18 102 l5 80 528 3 c290 1 527 -1 527 -5 0 -4 -6 -32 -14 -62 -8 -31 -19 -94 -25 -141 -16 -142 -40 -244 -77 -327 -8 -17 -14 -40 -14 -51 0 -12 -4 -23 -9 -26 -5 -3 -12 -18 -15 -33 -7 -28 -93 -208 -109 -228 -5 -5 -31 -46 -59 -90 -29 -44 -58 -86 -66 -94 -7 -8 -31 -37 -51 -65 -76 -103 -328 -325 -456 -402 -127 -76 -358 -177 -450 -196 -275 -57 -431 -71 -630 -57 -144 10 -380 55 -465 89 -30 12 -66 25 -80 30 -14 4 -53 22 -88 39 -34 17 -64 31 -67 31 -2 0 -38 20 -78 45 -41 25 -79 45 -84 45 -6 0 -18 10 -29 21 -10 12 -46 40 -79 62 -153 102 -440 445 -527 627 -73 153 -138 320 -138 355 0 11 -7 38 -15 60 -8 22 -14 58 -15 81 0 23 -5 54 -10 71 -12 32 -30 203 -23 216 2 4 234 7 514 7 399 0 510 -3 513 -12z"/> <path d="M6042 3063 c-15 -112 -37 -231 -56 -308 -8 -33 -20 -80 -26 -105 -12 -50 -35 -118 -56 -167 -8 -17 -14 -38 -14 -47 0 -9 -4 -24 -9 -34 -5 -9 -26 -53 -46 -97 -91 -196 -210 -397 -279 -471 -14 -16 -26 -33 -26 -38 0 -18 -101 -132 -231 -258 -132 -129 -152 -147 -249 -223 -25 -19 -52 -41 -60 -48 -8 -8 -29 -19 -47 -26 -18 -7 -38 -20 -44 -28 -7 -8 -30 -24 -52 -36 -22 -12 -51 -28 -64 -35 -13 -8 -27 -20 -30 -28 -3 -8 -15 -14 -28 -14 -12 0 -28 -7 -35 -15 -7 -8 -20 -15 -30 -15 -10 0 -23 -7 -30 -15 -7 -8 -19 -15 -26 -15 -8 0 -22 -4 -32 -9 -50 -25 -111 -51 -121 -51 -6 0 -34 -11 -63 -25 -28 -14 -58 -25 -67 -25 -16 0 -130 -35 -171 -53 -14 -5 -41 -11 -60 -12 -32 -2 -67 -8 -250 -45 -32 -7 -158 -11 -302 -11 -223 0 -287 -6 -243 -23 8 -3 86 -8 173 -11 116 -4 183 -2 257 9 55 9 132 18 172 20 44 2 81 10 95 20 13 10 43 16 75 16 28 0 54 4 58 9 3 6 27 13 53 16 26 4 56 10 67 14 11 5 47 16 80 26 67 20 116 39 158 61 16 8 34 14 40 14 13 0 138 62 247 122 58 32 90 51 209 123 19 11 48 33 65 49 17 15 49 40 71 55 74 48 353 324 403 396 15 22 35 49 44 59 10 11 30 38 45 60 15 23 31 43 34 46 7 7 100 162 140 235 49 90 75 147 83 178 3 15 11 27 16 27 5 0 12 16 16 35 3 19 10 38 15 41 5 3 9 14 9 24 0 11 9 37 21 59 11 22 18 45 14 51 -4 6 0 19 8 28 9 9 18 37 21 61 3 24 10 49 16 55 5 5 10 28 10 50 0 23 7 55 16 71 9 17 17 58 18 95 1 36 7 75 14 87 13 24 17 163 4 163 -5 0 -14 -39 -20 -87z"/> <path d="M997 2975 c-4 -26 -1 -49 8 -69 8 -16 15 -49 15 -73 0 -24 7 -60 15 -80 8 -19 15 -50 15 -68 0 -18 7 -38 15 -45 8 -7 15 -29 15 -50 0 -21 7 -43 15 -50 8 -7 15 -27 15 -46 0 -18 4 -36 10 -39 5 -3 14 -24 20 -46 6 -22 15 -37 20 -34 16 10 12 40 -14 102 -42 102 -93 287 -111 408 -7 44 -17 91 -22 104 -9 23 -10 23 -16 -14z"/> <path d="M1173 2338 c11 -47 35 -102 46 -106 6 -2 11 -14 11 -27 0 -12 7 -28 15 -35 8 -7 15 -17 15 -22 0 -6 20 -43 45 -82 25 -40 45 -77 45 -83 0 -6 7 -16 16 -24 8 -7 24 -29 35 -48 64 -118 322 -412 442 -506 21 -17 56 -43 77 -60 21 -16 66 -51 99 -77 33 -27 62 -48 65 -48 4 0 33 -18 65 -40 32 -22 61 -40 64 -40 3 0 26 -13 50 -30 24 -16 55 -34 68 -40 13 -5 31 -14 39 -19 47 -26 80 -41 94 -41 9 0 16 -4 16 -10 0 -5 5 -10 11 -10 10 0 35 -10 114 -45 38 -17 122 -45 155 -52 14 -2 39 -11 57 -19 17 -8 43 -14 58 -14 42 0 24 24 -26 33 -24 5 -48 13 -54 17 -5 5 -27 11 -48 15 -20 4 -40 11 -43 16 -3 5 -13 9 -24 9 -10 0 -45 14 -78 30 -34 17 -66 30 -72 30 -19 0 -271 131 -340 177 -120 78 -190 128 -248 173 -81 64 -291 270 -308 303 -8 15 -21 27 -29 27 -7 0 -17 9 -20 20 -3 11 -10 20 -14 20 -5 0 -29 30 -54 68 -25 37 -58 84 -74 104 -15 20 -41 60 -58 88 -16 28 -41 68 -54 88 -13 20 -44 78 -68 127 -74 149 -77 155 -86 155 -5 0 -7 -10 -4 -22z"/> <path d="M346 1676 c-22 -7 -57 -29 -78 -50 l-38 -38 0 -427 c1 -350 3 -430 15 -451 8 -14 14 -33 15 -43 0 -25 81 -129 127 -164 95 -71 71 -68 539 -68 398 0 423 1 443 19 38 35 61 93 61 156 0 58 -1 60 -50 110 l-51 50 -328 0 c-280 0 -330 2 -341 15 -7 8 -16 15 -21 15 -18 0 -48 40 -58 77 -6 23 -9 150 -6 328 4 331 -1 379 -50 426 -31 30 -94 60 -125 58 -8 -1 -33 -7 -54 -13z m99 -156 c27 -43 32 -79 13 -98 -8 -8 -8 -15 0 -24 6 -8 11 -100 13 -253 1 -132 7 -253 12 -270 10 -30 52 -88 95 -132 34 -34 76 -53 121 -53 22 0 42 -4 45 -8 3 -5 33 -8 68 -7 35 1 78 -2 96 -7 28 -8 36 -6 47 9 13 17 14 17 20 1 8 -21 46 -24 75 -6 16 10 24 10 40 0 25 -15 92 -16 107 -1 16 16 101 -38 109 -69 17 -62 -59 -70 -604 -62 l-184 3 -46 37 c-132 106 -133 110 -141 485 -4 184 -3 305 3 313 6 9 5 25 -3 47 -13 37 -4 60 43 113 28 31 42 28 71 -18z"/> <path d="M6420 1529 c-19 -10 -50 -35 -67 -56 l-33 -38 0 -327 0 -327 -50 -51 -51 -50 -340 0 c-375 0 -360 2 -426 -66 -58 -61 -57 -160 3 -229 l34 -40 453 0 452 0 62 38 c68 41 119 88 134 121 5 12 21 41 35 66 l25 45 1 418 1 417 -28 30 c-64 67 -138 84 -205 49z m105 -136 l26 -28 0 -325 c0 -179 0 -332 0 -340 0 -56 -26 -117 -53 -126 -11 -3 -24 -18 -29 -34 -6 -17 -31 -41 -62 -61 l-52 -34 -375 -2 c-360 -2 -376 -1 -407 18 -37 23 -46 65 -15 76 9 4 26 14 38 22 18 14 57 16 280 15 142 -1 264 2 269 6 6 4 28 11 50 15 22 4 45 10 50 15 6 4 22 10 36 14 15 3 36 21 48 38 12 18 32 48 46 67 15 20 25 48 25 67 0 18 4 35 9 39 6 3 10 113 11 261 l1 255 32 34 c17 19 35 35 39 35 4 0 19 -12 33 -27z"/> <path d="M2933 857 c-8 -13 0 -17 50 -19 25 -2 47 2 49 7 4 12 -91 24 -99 12z"/> <path d="M3080 831 c-42 -12 -6 -22 90 -26 98 -3 121 8 39 19 -29 4 -64 9 -78 11 -14 2 -37 0 -51 -4z"/> </g> </svg> 